<svg width="25" height="25" viewBox="0 0 25 25" fill="none" xmlns="http://www.w3.org/2000/svg">
<path d="M22.8614 11.3969C22.7656 10.9835 22.5808 10.596 22.3198 10.2615C22.0549 9.92942 21.7207 9.65924 21.3406 9.46979C21.0408 9.32232 20.7155 9.2339 20.3823 9.20938C20.2125 7.38657 19.4046 5.68225 18.101 4.39688C16.6167 2.91477 14.6049 2.08231 12.5073 2.08231C10.4097 2.08231 8.39785 2.91477 6.91352 4.39688C5.60997 5.68225 4.80208 7.38657 4.63227 9.20938C4.29908 9.2339 3.97372 9.32232 3.67394 9.46979C3.29192 9.65629 2.95714 9.92696 2.69477 10.2615C2.43182 10.5953 2.24674 10.9836 2.15303 11.3981C2.05932 11.8126 2.05934 12.2428 2.15311 12.6573L3.78852 19.3552C4.07001 20.3815 4.68163 21.2865 5.52888 21.9304C6.37613 22.5743 7.41186 22.9213 8.47602 22.9177H16.5073C17.5751 22.9188 18.6136 22.5686 19.4626 21.921C20.3116 21.2734 20.924 20.3645 21.2052 19.3344L22.8302 12.6573C22.9344 12.2448 22.9448 11.8135 22.8614 11.3969ZM9.21561 18.0844C9.21561 18.2916 9.1333 18.4903 8.98678 18.6368C8.84027 18.7833 8.64156 18.8656 8.43436 18.8656C8.22716 18.8656 8.02844 18.7833 7.88193 18.6368C7.73542 18.4903 7.65311 18.2916 7.65311 18.0844V13.9802C7.65311 13.773 7.73542 13.5743 7.88193 13.4278C8.02844 13.2813 8.22716 13.199 8.43436 13.199C8.64156 13.199 8.84027 13.2813 8.98678 13.4278C9.1333 13.5743 9.21561 13.773 9.21561 13.9802V18.0844ZM13.2885 18.0844C13.2885 18.187 13.2683 18.2886 13.2291 18.3833C13.1898 18.4781 13.1322 18.5643 13.0597 18.6368C12.9872 18.7093 12.901 18.7669 12.8062 18.8062C12.7115 18.8454 12.6099 18.8656 12.5073 18.8656C12.4047 18.8656 12.3031 18.8454 12.2083 18.8062C12.1135 18.7669 12.0274 18.7093 11.9548 18.6368C11.8823 18.5643 11.8248 18.4781 11.7855 18.3833C11.7462 18.2886 11.726 18.187 11.726 18.0844V13.9802C11.726 13.773 11.8083 13.5743 11.9548 13.4278C12.1014 13.2813 12.3001 13.199 12.5073 13.199C12.7145 13.199 12.9132 13.2813 13.0597 13.4278C13.2062 13.5743 13.2885 13.773 13.2885 13.9802V18.0844ZM17.3614 18.0844C17.3614 18.2916 17.2791 18.4903 17.1326 18.6368C16.9861 18.7833 16.7874 18.8656 16.5802 18.8656C16.373 18.8656 16.1743 18.7833 16.0278 18.6368C15.8813 18.4903 15.7989 18.2916 15.7989 18.0844V13.9802C15.7989 13.773 15.8813 13.5743 16.0278 13.4278C16.1743 13.2813 16.373 13.199 16.5802 13.199C16.7874 13.199 16.9861 13.2813 17.1326 13.4278C17.2791 13.5743 17.3614 13.773 17.3614 13.9802V18.0844ZM6.20519 9.18854C6.37651 7.79023 7.01521 6.49081 8.01769 5.50104C9.21039 4.31408 10.8246 3.64773 12.5073 3.64773C14.19 3.64773 15.8042 4.31408 16.9969 5.50104C17.9993 6.49081 18.638 7.79023 18.8094 9.18854H6.20519Z" fill="#5D8B0F"/>
</svg>
